<svg id="visual" viewBox="0 0 900 600" width="900" height="600" xmlns="http://www.w3.org/2000/svg" xmlns:xlink="http://www.w3.org/1999/xlink" version="1.1"><rect x="0" y="0" width="900" height="600" fill="#001220"></rect><path d="M0 444L16.7 448.7C33.3 453.3 66.7 462.7 100 465.7C133.3 468.7 166.7 465.3 200 461.7C233.3 458 266.7 454 300 453C333.3 452 366.7 454 400 454.3C433.3 454.7 466.7 453.3 500 455.2C533.3 457 566.7 462 600 453.8C633.3 445.7 666.7 424.3 700 419C733.3 413.7 766.7 424.3 800 428.5C833.3 432.7 866.7 430.3 883.3 429.2L900 428L900 601L883.3 601C866.7 601 833.3 601 800 601C766.7 601 733.3 601 700 601C666.7 601 633.3 601 600 601C566.7 601 533.3 601 500 601C466.7 601 433.3 601 400 601C366.7 601 333.3 601 300 601C266.7 601 233.3 601 200 601C166.7 601 133.3 601 100 601C66.7 601 33.3 601 16.7 601L0 601Z" fill="#0066ff"></path><path d="M0 447L16.7 447.3C33.3 447.7 66.7 448.3 100 453.8C133.3 459.3 166.7 469.7 200 472.8C233.3 476 266.7 472 300 470.3C333.3 468.7 366.7 469.3 400 472C433.3 474.7 466.7 479.3 500 484.2C533.3 489 566.7 494 600 488C633.3 482 666.7 465 700 456C733.3 447 766.7 446 800 448.2C833.3 450.3 866.7 455.7 883.3 458.3L900 461L900 601L883.3 601C866.7 601 833.3 601 800 601C766.7 601 733.3 601 700 601C666.7 601 633.3 601 600 601C566.7 601 533.3 601 500 601C466.7 601 433.3 601 400 601C366.7 601 333.3 601 300 601C266.7 601 233.3 601 200 601C166.7 601 133.3 601 100 601C66.7 601 33.3 601 16.7 601L0 601Z" fill="#6c63fd"></path><path d="M0 530L16.7 527.2C33.3 524.3 66.7 518.7 100 517C133.3 515.3 166.7 517.7 200 519.2C233.3 520.7 266.7 521.3 300 519.2C333.3 517 366.7 512 400 506.2C433.3 500.3 466.7 493.7 500 490.2C533.3 486.7 566.7 486.3 600 493C633.3 499.7 666.7 513.3 700 521.7C733.3 530 766.7 533 800 528.8C833.3 524.7 866.7 513.3 883.3 507.7L900 502L900 601L883.3 601C866.7 601 833.3 601 800 601C766.7 601 733.3 601 700 601C666.7 601 633.3 601 600 601C566.7 601 533.3 601 500 601C466.7 601 433.3 601 400 601C366.7 601 333.3 601 300 601C266.7 601 233.3 601 200 601C166.7 601 133.3 601 100 601C66.7 601 33.3 601 16.7 601L0 601Z" fill="#9a5ff8"></path><path d="M0 527L16.7 531.3C33.3 535.7 66.7 544.3 100 552.2C133.3 560 166.7 567 200 567C233.3 567 266.7 560 300 557.5C333.3 555 366.7 557 400 558C433.3 559 466.7 559 500 555.7C533.3 552.3 566.7 545.7 600 544.5C633.3 543.3 666.7 547.7 700 548.5C733.3 549.3 766.7 546.7 800 545.7C833.3 544.7 866.7 545.3 883.3 545.7L900 546L900 601L883.3 601C866.7 601 833.3 601 800 601C766.7 601 733.3 601 700 601C666.7 601 633.3 601 600 601C566.7 601 533.3 601 500 601C466.7 601 433.3 601 400 601C366.7 601 333.3 601 300 601C266.7 601 233.3 601 200 601C166.7 601 133.3 601 100 601C66.7 601 33.3 601 16.7 601L0 601Z" fill="#be5cf2"></path></svg>